<svg width="40" height="40" viewBox="0 0 40 40" fill="none" xmlns="http://www.w3.org/2000/svg">
<rect width="40" height="40" rx="10" fill="url(#paint0_linear_27_15)"/>
<path d="M31.6094 22.5C31.6094 22.5521 31.6042 22.5885 31.5938 22.6094C30.9271 25.401 29.5312 27.6641 27.4062 29.3984C25.2812 31.1328 22.7917 32 19.9375 32C18.4167 32 16.9453 31.7135 15.5234 31.1406C14.1016 30.5677 12.8333 29.75 11.7188 28.6875L9.70312 30.7031C9.50521 30.901 9.27083 31 9 31C8.72917 31 8.49479 30.901 8.29688 30.7031C8.09896 30.5052 8 30.2708 8 30V23C8 22.7292 8.09896 22.4948 8.29688 22.2969C8.49479 22.099 8.72917 22 9 22H16C16.2708 22 16.5052 22.099 16.7031 22.2969C16.901 22.4948 17 22.7292 17 23C17 23.2708 16.901 23.5052 16.7031 23.7031L14.5625 25.8438C15.3021 26.5312 16.1406 27.0625 17.0781 27.4375C18.0156 27.8125 18.9896 28 20 28C21.3958 28 22.6979 27.6615 23.9062 26.9844C25.1146 26.3073 26.0833 25.375 26.8125 24.1875C26.9271 24.0104 27.2031 23.401 27.6406 22.3594C27.724 22.1198 27.8802 22 28.1094 22H31.1094C31.2448 22 31.362 22.0495 31.4609 22.1484C31.5599 22.2474 31.6094 22.3646 31.6094 22.5ZM32 10V17C32 17.2708 31.901 17.5052 31.7031 17.7031C31.5052 17.901 31.2708 18 31 18H24C23.7292 18 23.4948 17.901 23.2969 17.7031C23.099 17.5052 23 17.2708 23 17C23 16.7292 23.099 16.4948 23.2969 16.2969L25.4531 14.1406C23.9115 12.7135 22.0938 12 20 12C18.6042 12 17.3021 12.3385 16.0938 13.0156C14.8854 13.6927 13.9167 14.625 13.1875 15.8125C13.0729 15.9896 12.7969 16.599 12.3594 17.6406C12.276 17.8802 12.1198 18 11.8906 18H8.78125C8.64583 18 8.52865 17.9505 8.42969 17.8516C8.33073 17.7526 8.28125 17.6354 8.28125 17.5V17.3906C8.95833 14.599 10.3646 12.3359 12.5 10.6016C14.6354 8.86719 17.1354 8 20 8C21.5208 8 23 8.28906 24.4375 8.86719C25.875 9.44531 27.151 10.2604 28.2656 11.3125L30.2969 9.29688C30.4948 9.09896 30.7292 9 31 9C31.2708 9 31.5052 9.09896 31.7031 9.29688C31.901 9.49479 32 9.72917 32 10Z" fill="white"/>
<defs>
<linearGradient id="paint0_linear_27_15" x1="15.5" y1="40" x2="26.5" y2="-5.67734e-07" gradientUnits="userSpaceOnUse">
<stop stop-color="#585858"/>
<stop offset="1" stop-color="#BCBCBC"/>
</linearGradient>
</defs>
</svg>
